Coordinates
version=1
nRows=17
nColumns=40
inDegrees=yes

Units are S.I. units (second, meters, Newtons, ...)
Angles are in degrees.

endheader
time	pelvis_tilt	pelvis_list	pelvis_rotation	pelvis_tx	pelvis_ty	pelvis_tz	hip_flexion_r	hip_adduction_r	hip_rotation_r	knee_angle_r	knee_angle_r_beta	ankle_angle_r	subtalar_angle_r	mtp_angle_r	hip_flexion_l	hip_adduction_l	hip_rotation_l	knee_angle_l	knee_angle_l_beta	ankle_angle_l	subtalar_angle_l	mtp_angle_l	lumbar_extension	lumbar_bending	lumbar_rotation	arm_flex_r	arm_add_r	arm_rot_r	elbow_flex_r	pro_sup_r	wrist_flex_r	wrist_dev_r	arm_flex_l	arm_add_l	arm_rot_l	elbow_flex_l	pro_sup_l	wrist_flex_l	wrist_dev_l
     55.40750000	     -6.47554143	     -5.63132551	      1.95444060	      0.97850093	      0.93547821	      0.39757951	     36.86542820	     -4.80392072	     -8.13544156	     59.97256839	     59.97256839	      2.04755111	    -12.89176746	     -1.30284838	     12.67150595	     -4.05082749	     -7.66483523	     15.66122283	     15.66122283	     12.66537955	     -6.10449417	     -1.20986346	     -8.82054464	      7.05327119	      3.58230657	      3.31509037	    -12.13481233	    -10.46776834	     30.59534312	     46.63945259	      0.00000000	      0.00000000	     12.98427003	    -14.07676807	     -1.15230899	     62.24399876	     46.57163863	      0.00000000	      0.00000000
     55.41985714	     -6.60092835	     -5.69104172	      1.75250887	      0.97715513	      0.93497612	      0.39814480	     37.52339539	     -4.53175960	     -8.40371668	     56.92592292	     56.92592292	      1.94170512	    -12.69250362	     -1.56496623	     11.98221096	     -4.12252396	     -7.79599312	     14.91531289	     14.91531289	     12.12879241	     -6.27625400	     -3.38585107	     -8.89127680	      6.99561187	      2.88611430	      3.18719964	    -11.68555577	     -9.06317791	     26.34958452	     46.70314264	      0.00000000	      0.00000000	     13.13772477	    -14.50176535	     -2.97868661	     66.07359131	     46.80394550	      0.00000000	      0.00000000
     55.43221429	     -6.71977839	     -5.78204357	      1.59022692	      0.97592261	      0.93447129	      0.39869993	     37.94909260	     -4.21160785	     -8.78662338	     53.45401141	     53.45401141	      1.98470849	    -12.29533022	     -1.17969518	     11.40060152	     -4.22769354	     -7.83701153	     14.45029425	     14.45029425	     12.39261459	     -6.25208622	     -3.61267073	     -8.95025707	      7.04293611	      3.02370656	      1.48992635	    -11.42955671	     -8.85213190	     25.30711986	     46.71480648	      0.00000000	      0.00000000	     14.57759555	    -14.52969708	     -3.51187479	     67.52210524	     46.87927301	      0.00000000	      0.00000000
     55.44457143	     -6.76914518	     -5.68700545	      1.30871308	      0.97494704	      0.93389066	      0.39940415	     38.16007454	     -3.95245046	     -8.99900403	     49.70624632	     49.70624632	      1.99699170	    -11.74492600	     -0.93499070	     10.65729971	     -4.16386070	     -8.10305120	     13.90783847	     13.90783847	     12.54582805	     -6.16396998	     -4.15927209	     -9.12480956	      6.83793623	      3.41286121	     -0.18932710	    -11.18974600	     -8.54413319	     24.04573774	     46.72959577	      0.00000000	      0.00000000	     15.87340348	    -14.42567656	     -4.23792304	     69.76577946	     46.98345707	      0.00000000	      0.00000000
     55.45692857	     -6.93588860	     -5.60624721	      1.08122114	      0.97409901	      0.93305936	      0.40004061	     38.27231652	     -3.70202089	     -9.38398040	     45.62260003	     45.62260003	      1.98151065	    -10.95444336	     -0.52834581	     10.09864330	     -4.10175670	     -8.29354416	     13.46738221	     13.46738221	     12.75555434	     -6.06572127	     -4.54996655	     -9.07376717	      6.72327678	      3.32696989	     -1.71690953	    -10.87930625	     -8.38789598	     23.23040166	     46.73788774	      0.00000000	      0.00000000	     16.99031026	    -14.67789859	     -4.78855808	     71.36796689	     47.05901891	      0.00000000	      0.00000000
     55.46928571	     -6.90750932	     -5.28995253	      0.74714973	      0.97368703	      0.93231751	      0.40071202	     38.02452835	     -3.56643820	     -9.61459100	     41.36229941	     41.36229941	      1.84073254	     -9.94740431	     -0.65862791	      9.11353367	     -3.78429687	     -8.74818793	     12.69569019	     12.69569019	     12.60917878	     -5.86285543	     -5.78489115	     -9.33839284	      6.25576730	      3.24885467	     -3.07451654	    -10.65009084	     -7.96605123	     22.22962930	     46.73975201	      0.00000000	      0.00000000	     17.40486262	    -14.70350019	     -6.12164314	     75.07043228	     47.23468469	      0.00000000	      0.00000000
     55.48164286	     -6.91709114	     -5.11308284	      0.49970327	      0.97349556	      0.93153217	      0.40137317	     37.53928514	     -3.28365751	    -10.10926963	     36.79402121	     36.79402121	      1.75910661	     -8.72155798	     -0.06593631	      8.34543037	     -3.61351651	     -8.94617190	     12.27882760	     12.27882760	     12.84738441	     -5.82388196	     -6.14869460	     -9.39952727	      6.03888653	      3.10355263	     -4.49035957	    -10.52394869	     -7.84938014	     21.63415814	     46.74404089	      0.00000000	      0.00000000	     18.30229708	    -14.88400721	     -6.67790269	     76.60673792	     47.31171765	      0.00000000	      0.00000000
     55.49400000	     -6.86162801	     -4.79068445	      0.22651187	      0.97365051	      0.93069936	      0.40205076	     36.84822153	     -3.10486309	    -10.65945490	     32.22644554	     32.22644554	      1.68253133	     -7.14729083	      0.66609411	      7.41034955	     -3.27803312	     -9.27628612	     11.72953135	     11.72953135	     13.05810688	     -5.61468715	     -6.51954170	     -9.53259310	      5.64042860	      3.10381748	     -5.99404503	    -10.39864126	     -7.76571967	     21.19496383	     46.74313665	      0.00000000	      0.00000000	     19.13219493	    -14.94720228	     -7.28276032	     78.56919558	     47.39963334	      0.00000000	      0.00000000
     55.50635714	     -6.85039706	     -4.41953342	     -0.04043969	      0.97409536	      0.92962554	      0.40279318	     36.08646349	     -2.90899988	    -11.22630266	     27.74166560	     27.74166560	      1.59566289	     -5.48162380	      1.62867954	      6.55206241	     -2.89211506	     -9.61171311	     11.25855213	     11.25855213	     13.31917943	     -5.42636053	     -6.82103523	     -9.51917137	      5.18940566	      3.01606022	     -7.38823914	    -10.25312423	     -7.73799044	     20.93193933	     46.73898090	      0.00000000	      0.00000000	     19.91763685	    -15.10714101	     -7.79179486	     80.28393102	     47.47486797	      0.00000000	      0.00000000
     55.51871429	     -6.62284759	     -4.04319063	     -0.22011883	      0.97503046	      0.92873907	      0.40343232	     34.99621820	     -2.77913294	    -12.10233427	     23.53581873	     23.53581873	      1.64447965	     -3.35141356	      2.98553600	      5.38032664	     -2.48490313	     -9.93370373	     10.69119253	     10.69119253	     13.58481086	     -5.02481022	     -7.16632960	     -9.77951728	      4.75968543	      2.93298095	     -8.93010600	    -10.27520592	     -7.75232231	     20.93695955	     46.72555499	      0.00000000	      0.00000000	     20.44972603	    -15.12074075	     -8.38578792	     82.51225697	     47.56679644	      0.00000000	      0.00000000
     55.53107143	     -6.50511474	     -3.61657970	     -0.41829830	      0.97615475	      0.92750594	      0.40419180	     34.21150488	     -2.75733863	    -13.19326983	     20.17978547	     20.17978547	      2.61253881	     -0.76525497	      6.97871215	      4.36298949	     -2.03786446	    -10.33894360	     10.20119874	     10.20119874	     13.83761663	     -4.54829695	     -7.67740871	     -9.90610775	      4.21181947	      2.27663921	    -10.43408912	    -10.34469742	     -7.57265804	     22.48521167	     46.62892844	      0.00000000	      0.00000000	     20.19100746	    -15.43683654	     -9.73537713	     85.87233395	     47.75675986	      0.00000000	      0.00000000
     55.54342857	     -6.33713776	     -3.30123619	     -0.55190442	      0.97760229	      0.92626951	      0.40504773	     33.21028606	     -2.52220075	    -14.08211153	     16.94571488	     16.94571488	      2.57870095	      0.89843749	      8.58513310	      3.33718083	     -1.71046460	    -10.55264477	      9.84192464	      9.84192464	     14.25885120	     -4.24304424	     -7.78089703	     -9.91947529	      3.86004782	      2.28010182	    -11.77581564	    -10.38949687	     -7.45639181	     22.28010625	     46.61571486	      0.00000000	      0.00000000	     20.93813533	    -15.41318302	     -9.88004631	     86.94320117	     47.80194484	      0.00000000	      0.00000000
     55.55578571	     -6.24844029	     -3.01409060	     -0.64408244	      0.97923427	      0.92491224	      0.40594399	     32.50021823	     -2.40254539	    -15.24955221	     14.72561685	     14.72561685	      3.66852725	      2.82127882	     13.03894481	      2.49571446	     -1.46524964	    -10.96258119	      9.70987342	      9.70987342	     14.98741960	     -3.48506121	     -7.47223589	     -9.84684575	      3.54574079	      2.10693943	    -13.35767438	    -10.56275030	     -7.03136432	     23.61679221	     46.50787494	      0.00000000	      0.00000000	     21.28061429	    -15.51179148	    -10.05806724	     88.48949364	     47.90140659	      0.00000000	      0.00000000
     55.56814286	     -6.27365999	     -2.59192452	     -0.68216882	      0.98098973	      0.92309181	      0.40691438	     32.04832422	     -2.38674280	    -15.78482896	     13.14676190	     13.14676190	      3.51348705	      3.33364553	     13.46316221	      1.82161296	     -1.05143145	    -11.00365324	      9.62906273	      9.62906273	     15.42723341	     -3.34642654	     -7.62004784	     -9.53709370	      3.07953715	      1.92247516	    -14.42964387	    -10.63037711	     -7.02872424	     23.29867919	     46.51169016	      0.00000000	      0.00000000	     21.85641001	    -15.70420374	    -10.19438822	     89.00607292	     47.92518403	      0.00000000	      0.00000000
     55.58050000	     -6.06302492	     -2.63875273	     -0.76202016	      0.98333824	      0.92197660	      0.40822111	     30.85497299	     -1.85838997	    -16.84361740	     11.25064292	     11.25064292	      3.16586993	      4.60175451	     14.05610497	      0.69619817	     -1.15441214	    -11.23218457	      9.27796853	      9.27796853	     15.93660841	     -2.92248299	     -7.55632483	     -9.48058645	      3.14604453	      2.05869370	    -15.25750783	    -10.67532049	     -7.01532089	     23.25984020	     46.50445308	      0.00000000	      0.00000000	     22.20402311	    -15.40533952	    -10.05893486	     89.99159595	     47.94448701	      0.00000000	      0.00000000
     55.59285714	     -5.96898601	     -2.54860185	     -0.77388499	      0.98575309	      0.92051124	      0.40952398	     30.12569458	     -1.61257809	    -17.64254103	     10.44426940	     10.44426940	      2.97070430	      5.23175259	     14.14859400	     -0.18315057	     -1.13951957	    -11.42102078	      9.15431054	      9.15431054	     16.52533478	     -2.44142887	     -7.43278354	     -9.27564845	      3.05371554	      2.00473751	    -16.06217517	    -10.78969325	     -7.04782126	     23.33300872	     46.49642057	      0.00000000	      0.00000000	     22.41673201	    -15.36381848	     -9.94890397	     90.72310713	     47.96062019	      0.00000000	      0.00000000
     55.60521429	     -5.85802989	     -2.51417238	     -0.75470695	      0.98842828	      0.91904918	      0.41095439	     29.41604571	     -1.38722830	    -18.30776056	     10.06597351	     10.06597351	      2.12142372	      5.66742628	     12.23981123	     -0.88491981	     -1.32930987	    -12.21713825	      9.55546221	      9.55546221	     18.01209315	     -0.74449945	     -5.97605984	     -9.05258275	      3.05599985	      1.89485589	    -17.02646708	    -10.94641566	     -7.09983018	     24.46711483	     46.44297518	      0.00000000	      0.00000000	     22.32756207	    -15.51977858	     -9.53735502	     91.71164704	     47.99534918	      0.00000000	      0.00000000
